<svg xmlns="http://www.w3.org/2000/svg" viewBox="0 0 498.79 122.07"><defs><style>.cls-1{fill:#8f3637;}</style></defs><title>california</title><g id="Layer_2" data-name="Layer 2"><g id="Layer_1-2" data-name="Layer 1"><path class="cls-1" d="M191.29,64c-8.1,5.71-15.82,11.21-23.59,16.62-2.65,1.85-6,3.26-8.43.7a12.91,12.91,0,0,1-2.92-8c-.07-3.1,1.34-6.23,2.11-9.35.38-1.5.77-3,1.15-4.5l-1.16-.7c-4.5,3.83-8.92,7.76-13.53,11.46s-9,7.51-14,10.46c-9.17,5.42-14,4-19.08-4.16-4.29,1.31-8.48,3.76-12.54,3.55C93.58,79.77,93.86,74,92.89,69c-3.21,2.6-6,5.05-9,7.26C80.18,79,76.43,81.7,72.53,84.17c-4.79,3-9.85,3-12.89.23-2.79-2.55-3.59-9.2-.71-13.37A55.89,55.89,0,0,1,69,59.86c5.55-4.59,11.58-8.76,19.09-9.69,4.2-.51,8.19-.5,10.16,5.75.84-1.25,1.44-2.87,2.59-3.66s3.67-1.75,4.46-1.15c1.15.87,1.82,3.09,1.73,4.68s-1.26,3.39-2,5.05c-1.37,2.91-3,5.71-4.13,8.73-.43,1.2.31,2.83.51,4.26,1.46-.22,3.49.07,4.28-.78,2-2.17,4.41-4.64,5-7.36a106,106,0,0,1,21.17-43.07c4.63-5.72,9.35-11.37,14.09-17a11.4,11.4,0,0,1,2.86-2.29c2.83-1.73,6.08-1.83,7.88.86a8.24,8.24,0,0,1,.56,7c-9.84,19-19.58,38.06-36.16,52.43-1.28,1.11-2.76,3.07-2.64,4.52.24,3,1.48,6,2.31,9,2.94-.91,6.43-1.1,8.7-2.86,9.37-7.23,18.37-14.94,27.52-22.48.94-.78,1.82-1.86,2.92-2.21,2.13-.68,4.78-1.88,6.54-1.18,3.12,1.25,4.1,4.36,3.08,7.78s-2,6.78-3,10.18c-.49,1.73-.88,3.49-1.64,6.51a42.45,42.45,0,0,0,5.63-2.26c9.9-6.06,19.36-12.8,25.36-23,3.54-6,6-12.63,8.83-19,3.42-7.89,6.53-15.92,10.08-23.75.68-1.51,2.8-2.36,4.26-3.52.9,1.63,2.37,3.18,2.62,4.9,1.16,8.13-1.78,15.39-5.19,22.54q-8.33,17.46-16.46,35c-.68,1.47-1.09,3.06-1.62,4.59l1.07,1q8.64-6.59,17.29-13.17c5.35-4.06,10.57-8.33,16.13-12.09,4.43-3,9.39-2.35,14.13-.37A5.52,5.52,0,0,1,249.83,46c1.63,3.31,2.95,6.78,4.87,11.33,4.92-4.36,9.37-8.24,13.74-12.2,1.36-1.23,2.44-2.77,3.78-4,4.37-4.1,7-2.76,10,2.36,4.07,7.15,2.32,12.46-2.46,18.16-2.25,2.68-3.44,6.25-5.5,10.15,6.11.41,10-2,13.77-4.57a50.84,50.84,0,0,0,4.71-3.71q10.16-8.94,20.24-18c2.37-2.13,5-1.84,6.29.51,1.69,3,2.38,6.52,3.26,9.12,4.51-2.95,9.64-6.82,15.23-9.82,6.51-3.5,12.12.35,12,7.8-.05,2.44-.8,4.89-.74,7.33,0,2.07.8,4.12,1.25,6.18,1.77-1,3.76-1.67,5.27-3,8.95-7.5,17.67-15.28,26.71-22.67,4-3.26,8.25-1.2,8.47,4A31.1,31.1,0,0,1,389.41,54c-3,11.45-2.71,22.21,5.45,31.76.81.95.65,2.74.94,4.13-1.54.28-3.39,1.22-4.55.68a12.44,12.44,0,0,1-5.11-4.24c-6.25-9.7-7.6-20.27-4.9-31.41.36-1.46.71-2.92,1.37-5.64-2.74,1.7-4.76,2.61-6.35,4-6.13,5.37-12.05,11-18.16,16.36-3.41,3-6.76,7.15-12,4.85s-6.43-7.42-6.43-12.77c0-2.85,0-5.7,0-8.55l-1.68-.9c-2.77,2.16-5.68,4.17-8.29,6.51-5.49,4.93-10.71,10.17-16.29,15C312,75,309,76.09,307.91,75.41c-1.52-.93-3-3.84-2.62-5.52.71-3.43,2.51-6.68,4.11-9.87a31,31,0,0,1,3.34-4.48l-.93-.83q-7.95,6.43-15.9,12.88c-3.7,3-7.27,6.17-11.08,9-4.35,3.25-9.76,3.63-12.9,1.22-3.65-2.78-4.75-8.1-2.53-13.44,1.47-3.54,3.3-6.93,4.92-10.42.59-1.28,1-2.65,1.51-4l-1.24-1.11c-2.09,1.52-4.2,3-6.27,4.59-2.7,2-5.25,4.29-8.08,6.12a24.9,24.9,0,0,0-8.76,9.45C247.3,76.64,239.84,80.8,231.2,82c-5.12.7-11.82-5.69-12.18-11.12-.16-2.53,0-5.09,0-8.56L199,77.25a19.67,19.67,0,0,0,1.53,2.14c7.48,7.7,8.22,11.4,2.81,20.68-5.75,9.84-14.6,16.52-24.53,21.75-1,.54-3.58.16-4-.6-1-1.82-2.19-4.42-1.64-6.18,3.18-10.1,6.79-20.07,10.36-30C186,78,188.67,71,191.29,64Zm52.18-12.1c-9,1.4-16.43,10.65-15.66,19.72.3,3.57,1.71,5,5.36,3.81,6.7-2.14,10.64-7,13.24-13.16.49-1.17-.08-2.94-.51-4.32C245.27,55.94,244.32,54,243.47,51.92ZM95.68,58.2c-3.5,0-5.72-.2-7.88,0-9.26,1-15,7.17-20,14.19-1.08,1.53-.94,3.92-1.37,5.91,2-.26,4.46.14,5.94-.88,6.81-4.69,13.39-9.72,20-14.75C93.41,61.87,94,60.45,95.68,58.2ZM181.51,115l1.14.7c9.66-6.08,14.21-15.61,16.76-26.25,1-4-1.65-6.5-5.9-8.21C189.44,92.66,185.48,103.82,181.51,115ZM150.28,15.63l-2-1.36c-9.93,11.05-18.83,22.82-24,37.1C135,40.84,143,28.52,150.28,15.63Z"/><path class="cls-1" d="M15.29,89.31c-5-.54-8.83-2.47-11.42-6.55-3.83-6-5-12.4-2.65-19.34,5-14.62,11.07-28.69,21.25-40.6A70.12,70.12,0,0,1,58.33.48c7.92-2.14,12.61,3.13,9.56,10.76-2.44,6.07-5.84,11.77-9,17.54-1.61,3-3.6,5.71-5.46,8.53-1,1.53-1.8,3.73-3.24,4.34-2.11.9-5.43,1.68-6.94.64-2.65-1.84-1.36-4.94.92-6.61C50.9,30.75,55.76,24.3,59.83,17.17a49,49,0,0,0,3.29-7.09c.38-1,.47-2.71-.11-3.32a3.47,3.47,0,0,0-3.3-.31c-5.81,3.66-12,7-17.11,11.47-11.35,9.89-18.14,23.17-24.71,36.4a96.29,96.29,0,0,0-6.33,17.25c-1.8,6.62,1,9.25,7.79,8.2,8-1.25,14-6,19.83-11.06,6.71-5.87,13.53-11.62,20.31-17.41a7,7,0,0,1,2.24-1.58,21.55,21.55,0,0,1,3.79-.4c-.11,1.4.31,3.26-.43,4.12A170.13,170.13,0,0,1,52.32,67.36c-8,7.46-16,15-26.49,18.91C22.42,87.56,18.81,88.31,15.29,89.31Z"/><path class="cls-1" d="M181.86,25.75,175.39,31c-1.28-1.85-3.24-3.55-3.67-5.57A3.57,3.57,0,0,1,176.05,21C177.82,21.36,179.23,23.51,181.86,25.75Z"/><path class="cls-1" d="M400.35,17.73c-2.26,2.21-3.62,4.66-5,4.68-3.72,0-4.66-3.24-4.28-6.2.18-1.39,2.94-3.79,3.34-3.57C396.36,13.71,397.92,15.51,400.35,17.73Z"/><path class="cls-1" d="M493.82,78.35c-10.29.27-20.61,1.41-30.87,1a58.39,58.39,0,0,1-19.06-4.24c-7.54-3-10.1-10.44-7.77-18.36,1.21-4.13,2.46-8.25,3.4-12.44.48-2.1.4-5.26-2.73-4.27-2.81.89-4.32.25-6.48-1.15a7.34,7.34,0,0,0-5.3-.53c-14.21,3.85-24.29,15.78-26.7,30.52-.68,4.17,2,6.6,6.12,5.63a17,17,0,0,0,6.42-3.36c6.43-5.16,12.67-10.54,19.81-16.54-.28,2.18-.53,3.52-.62,4.86-.47,7,.72,13.67,6.18,18.56,6.24,5.6,13.55,9.16,22.22,8.52,11.95-.88,23.89-1.89,35.81-3.16,1.61-.17,3-2.18,4.54-3.35C497.13,79.47,495.46,78.31,493.82,78.35Zm-89.47-12C403,58.66,420.86,44,428.46,48.14,426.39,55,410.11,67.29,404.35,66.39Z"/></g></g></svg>