<svg xmlns="http://www.w3.org/2000/svg" viewBox="0 0 428.2 212.54"><defs><style>.cls-1{fill:#eaa61f;}.cls-2,.cls-3{fill:#080c39;}.cls-3{font-size:25.44px;font-family:Athelas-Bold, Athelas;font-weight:700;letter-spacing:0.05em;}.cls-4{letter-spacing:0.04em;}.cls-5{letter-spacing:-0.06em;}.cls-6{fill:none;stroke:#080c39;stroke-miterlimit:10;}.cls-7{fill:#fff;}</style></defs><title>Asset 1</title><g id="Layer_2" data-name="Layer 2"><g id="Layer_1-2" data-name="Layer 1"><rect class="cls-1" y="1.04" width="428" height="211.5" rx="13.84"/><path class="cls-2" d="M0,71.82Q.08,42.36.14,12.9A13.85,13.85,0,0,1,3,6.14c2.94-3.56,7.25-4.61,9.62-5C25.11-1.2,371.25.79,414.16,1c2.56.15,7,.82,10.1,4.08,3.5,3.63,3.67,8.76,3.71,11.22.18,9.54.38,23.61,0,55.48-58.93-12.39-131.49-13.21-214.76-15A1165.33,1165.33,0,0,0,0,71.82Z"/><path class="cls-1" d="M129.26,48.24q-9.73-10.79-19.64-21.42c.28,6.35.42,9.52.71,15.87.13,3.13,1.65,4.62,4.55,4.5l.05,1.18-10.13.46,0-1.19c2.36-.11,3.47-1.72,3.33-4.85-.31-7-.47-10.45-.79-17.41q-.08-1.65-4.3-1.46l0-1.18,7.8-.35c7,7.57,10.51,11.36,17.42,19-.2-5.65-.31-8.48-.52-14.13-.1-2.9-1.61-4.29-4.51-4.18l0-1.18c4.1-.16,6.15-.24,10.25-.38l0,1.18c-2.62.09-3.87,1.59-3.77,4.48l.75,20.76Z"/><path class="cls-1" d="M137,47.53c0-.47,0-.71,0-1.18q3.89-.12,3.8-2.69c-.22-7.15-.34-10.73-.56-17.88-.07-2.21-1.52-3.28-4.33-3.18l0-1.18c9-.3,13.47-.43,22.46-.65.2,2.95.31,4.42.51,7.36l-1.31.19A9.15,9.15,0,0,0,156.28,25a5,5,0,0,0-1.9-1.71,6.31,6.31,0,0,0-2.52-.6c-.94,0-2-.05-3.07,0l-1.19,0c-2.17.06-3.23.68-3.19,1.87l.21,7.05c0,.79.37,1.17,1,1.15l1.45,0a19.51,19.51,0,0,0,2-.15,4.06,4.06,0,0,0,1.6-.56,3.08,3.08,0,0,0,1.11-1.29,6.63,6.63,0,0,0,.56-2.33l1.57,0c.11,4.09.16,6.13.27,10.21l-1.57,0a9.37,9.37,0,0,0-.57-2.29,2.83,2.83,0,0,0-1-1.27,3.49,3.49,0,0,0-1.59-.55,14.75,14.75,0,0,0-2.3-.07h-.5c-1.31,0-1.94.49-1.92,1.36.09,3,.14,4.52.23,7.53,0,1.5,1.19,2.21,3.44,2.15l1.31,0A19.78,19.78,0,0,0,154,45a6.74,6.74,0,0,0,2.62-1.25,6.14,6.14,0,0,0,1.58-2.07c.38-.83.78-1.8,1.18-2.91l1.15.29c-.39,3.13-.58,4.7-1,7.83C150.55,47.11,146,47.23,137,47.53Z"/><path class="cls-1" d="M188,47c-2.72-7-4.08-10.5-6.84-17.49-2.3,7-3.44,10.51-5.7,17.52l-1.6.18c-3.72-9.14-5.59-13.71-9.37-22.84-.86-1.67-2-2.49-3.3-2.45,0-.48,0-.71,0-1.19l10.72-.22,0,1.18a6,6,0,0,0-2.58.43,1.23,1.23,0,0,0-.64,1.14,1.26,1.26,0,0,0,.12.45c.07.17.16.36.24.57,2.59,6.7,3.88,10,6.43,16.75,1.92-5.62,2.89-8.44,4.83-14.06l-1.72-4.05a1.83,1.83,0,0,0-1-1,5.37,5.37,0,0,0-2.1-.3l0-1.18c4.43-.08,6.64-.11,11.06-.16,0,.47,0,.71,0,1.18-2.11,0-3.15.58-3.14,1.66a1.85,1.85,0,0,0,.09.47c2.57,6.89,3.85,10.34,6.38,17.23,2-6.15,3-9.23,5-15.38a3.9,3.9,0,0,0,.24-1c0-.31,0-.63,0-.95,0-1.39-1.2-2.08-3.56-2.06l0-1.18,9.27-.08c0,.48,0,.71,0,1.19q-2.61,0-3.85,3.93c-3,8.62-4.47,12.93-7.39,21.56Z"/><path class="cls-1" d="M220.14,46.22V45q4.31,0,4.31-1.81c0-3.08,0-4.62,0-7.7-2.82-4.39-4.24-6.58-7.08-11-1.45-2.22-3-3.32-4.69-3.32V20.08c4.67,0,7,0,11.66,0v1.18c-2.05,0-3.07.44-3.08,1.34a1.12,1.12,0,0,0,.17.59L222,24c2.4,3.74,3.59,5.62,6,9.36,2.21-3.66,3.32-5.49,5.54-9.14a7.21,7.21,0,0,0,.22-.83,4.28,4.28,0,0,0,.09-.87c0-.79-1.12-1.2-3.4-1.21V20.12c4,0,5.94,0,9.9.08,0,.47,0,.71,0,1.18a3.94,3.94,0,0,0-3.38,1.47c-3.24,5-4.85,7.54-8,12.58,0,3.19,0,4.79,0,8,0,1.11,1.39,1.66,4.18,1.68v1.19C227.85,46.24,225.28,46.23,220.14,46.22Z"/><path class="cls-1" d="M252.62,47.09A14.43,14.43,0,0,1,247.1,46a13.19,13.19,0,0,1-7.17-7.25,13.34,13.34,0,0,1-1-5.28,13.69,13.69,0,0,1,1-5.06A13.38,13.38,0,0,1,242.83,24a13.85,13.85,0,0,1,4.45-3A13.67,13.67,0,0,1,253,19.92a15.74,15.74,0,0,1,5.72,1.1,13.67,13.67,0,0,1,4.48,2.89,12.69,12.69,0,0,1,2.87,4.29,13.36,13.36,0,0,1-.17,10.33A14.32,14.32,0,0,1,263,42.91,14.18,14.18,0,0,1,258.47,46,13.94,13.94,0,0,1,252.62,47.09Zm.36-1.53a8.53,8.53,0,0,0,4.08-.86,8.05,8.05,0,0,0,2.83-2.49,11.33,11.33,0,0,0,1.7-3.77,19.84,19.84,0,0,0,.62-4.69,19.25,19.25,0,0,0-.44-4.58,12,12,0,0,0-1.61-4,8.67,8.67,0,0,0-3-2.81,9.11,9.11,0,0,0-4.48-1.11,8,8,0,0,0-4.13.92,7.79,7.79,0,0,0-2.77,2.61,11.23,11.23,0,0,0-1.53,3.8,21.36,21.36,0,0,0-.5,4.52,20.3,20.3,0,0,0,.49,4.85,11.62,11.62,0,0,0,1.65,3.91,8.19,8.19,0,0,0,2.88,2.64A8.86,8.86,0,0,0,253,45.56Z"/><path class="cls-1" d="M297.43,44.17a3.56,3.56,0,0,1-.27,1.14,4.15,4.15,0,0,1-.76,1.24,4.74,4.74,0,0,1-1.22,1,2.94,2.94,0,0,1-1.6.38,7,7,0,0,1-3.77-.93,4.84,4.84,0,0,1-1.74-2.67c-.3-1-.61-2.09-.92-3.25A19.77,19.77,0,0,0,286,37.88a8.29,8.29,0,0,0-1.65-2.46,3.58,3.58,0,0,0-2.52-1l-1.27,0c-.77,0-1.21.11-1.33.4-.09,3.42-.14,5.13-.23,8.55Q279,45.86,282.86,46c0,.47,0,.71,0,1.18-4.76-.13-7.15-.19-11.91-.3l0-1.19q3.72.09,3.78-2.47c.18-7.46.27-11.19.46-18.64q.06-2.53-4-2.62l0-1.22,5.34.12c.94,0,1.74,0,2.39,0h1.9c.62,0,1.27,0,2,0s1.54,0,2.54.05a12,12,0,0,1,3.44.6A9.12,9.12,0,0,1,291.56,23a6.88,6.88,0,0,1,1.79,2.11,5,5,0,0,1,.6,2.59,5.24,5.24,0,0,1-.64,2.42,5.51,5.51,0,0,1-1.61,1.8,9.4,9.4,0,0,1-2.4,1.27,16.06,16.06,0,0,1-3,.78V34a10.73,10.73,0,0,1,3.3,2.36,7.75,7.75,0,0,1,1.73,2.68c.15.53.33,1.17.53,1.91a18,18,0,0,0,.71,2.11,7,7,0,0,0,1,1.71,1.81,1.81,0,0,0,1.41.74c.68,0,1.19-.55,1.54-1.72ZM282.55,32.86a18.27,18.27,0,0,0,2.47-.08,5.81,5.81,0,0,0,2.15-.65,4.13,4.13,0,0,0,1.55-1.53,5.72,5.72,0,0,0,.66-2.78,4.78,4.78,0,0,0-.5-2.5,4.29,4.29,0,0,0-1.44-1.6,6.26,6.26,0,0,0-2-.87,10.21,10.21,0,0,0-2.17-.3l-2-.06c-1.09,0-1.65.7-1.68,2.17l-.2,7.53c.1.39.43.6,1,.61Z"/><path class="cls-1" d="M316.57,48.34l.05-1.18c1.6.06,2.41-.11,2.43-.53a4.46,4.46,0,0,0-1-2c-2.89-3.78-4.34-5.68-7.25-9.45l-2,1.54a5.06,5.06,0,0,0-.86.87,3,3,0,0,0-.53,1.2l-.2,5.24q-.11,2.73,4.12,2.89l0,1.18c-4.9-.19-7.35-.29-12.24-.46,0-.47,0-.71,0-1.18q3.89.14,4-2.58c.27-7.27.4-10.9.67-18.16.07-1.92-1.31-2.94-4.12-3,0-.48,0-.71,0-1.18,4.86.16,7.3.26,12.16.45,0,.47,0,.71,0,1.18-2.51-.1-3.79.82-3.87,2.74-.14,3.84-.22,5.76-.37,9.6,4.09-3.34,6.15-5,10.26-8.33a7.27,7.27,0,0,0,1.36-1.27,2.52,2.52,0,0,0,.38-1.35c0-.71-.94-1.11-2.9-1.19l.05-1.18c4.42.18,6.63.28,11.05.49l-.05,1.18a13.43,13.43,0,0,0-2.13.24,6.06,6.06,0,0,0-1.58.56,10.09,10.09,0,0,0-1.59,1c-.56.44-1.28,1-2.16,1.75-2.5,2.05-3.75,3.08-6.23,5.15,3.68,4.85,5.51,7.27,9.16,12.13l1,1.16a6,6,0,0,0,1,.92,5.3,5.3,0,0,0,1.24.61,6.44,6.44,0,0,0,1.7.27c0,.48,0,.71-.06,1.19C323.51,48.64,321.19,48.53,316.57,48.34Z"/><text class="cls-3" transform="translate(118.62 194.13)">EMPIRE <tspan class="cls-4" x="109.78" y="0">S</tspan><tspan class="cls-5" x="124.41" y="0">TA</tspan><tspan x="155.83" y="0">TE</tspan></text><path class="cls-2" d="M414.16,212.54H13.84C6.2,212.54,0,207.27,0,200.76H428C428,207.27,421.8,212.54,414.16,212.54Z"/><line class="cls-6" x1="0.1" y1="198.55" x2="428.1" y2="198.55"/><rect class="cls-7" x="342.43" y="22.77" width="33.08" height="8.74" rx="3.19"/><rect class="cls-7" x="56.8" y="22.77" width="33.08" height="8.74" rx="3.19"/><rect class="cls-7" x="341.88" y="180.8" width="33.08" height="8.74" rx="3.19"/><rect class="cls-7" x="56.25" y="180.8" width="33.08" height="8.74" rx="3.19"/></g></g></svg>